# This file uses centimeters as units for non-parametric coordinates.

mtllib pillarL.mtl
g default
v -1.000000 -3.033020 -9.199720
v -1.000000 -3.033019 9.836456
v 1.000000 -3.033021 -9.199714
v 1.000000 -3.033019 9.836458
v -1.000000 -3.033020 4.315965
v 1.000000 -3.033020 4.315968
v -1.000000 -3.033020 -5.820799
v 1.000000 -3.033020 -5.820793
v -1.000000 -3.033020 -7.121684
v 1.000000 -3.033020 -7.121677
v -1.000000 -3.033020 -6.172038
v 1.000000 -3.033020 -6.172031
v -1.000000 -3.033020 5.475268
v 1.000000 -3.033020 5.475271
v -1.000000 -3.033020 4.547825
v 1.000000 -3.033020 4.547829
v -1.000000 -3.033019 8.616416
v 1.000000 -3.033019 8.616418
v -1.000000 1.773369 -9.199720
v -0.480046 3.224340 -9.199721
v 0.480045 3.224340 -9.199724
v 1.000000 1.773369 -9.199724
v 1.000000 2.284478 9.836454
v 0.480046 2.804433 9.836453
v -0.480045 2.804434 9.836452
v -1.000000 2.284478 9.836452
v -1.000000 0.416488 4.315961
v -1.000000 0.416487 -5.820800
v 1.000000 0.416487 -5.820802
v 1.000000 0.416488 4.315963
v -0.480046 1.048917 -5.820801
v -0.480045 1.048918 4.315961
v 0.480045 1.048918 4.315962
v 0.480045 1.048917 -5.820803
v -1.000000 0.602932 -7.121684
v 1.000000 0.602932 -7.121687
v -0.480046 2.053903 -7.121686
v 0.480045 2.053903 -7.121687
v -1.000000 0.602932 -6.172039
v 1.000000 0.602932 -6.172041
v -0.480045 2.053903 -6.172040
v 0.480045 2.053903 -6.172041
v -1.000000 1.329581 4.547822
v -1.000000 0.907386 5.475264
v 1.000000 1.329581 4.547823
v 1.000000 0.907385 5.475266
v -0.480045 1.849536 4.547822
v 0.480045 1.849535 4.547822
v -0.480045 1.427340 5.475264
v 0.480046 1.427340 5.475265
v -1.000000 2.284478 8.616411
v 1.000000 2.284478 8.616415
v -0.480045 2.804434 8.616412
v 0.480046 2.804433 8.616413
vt 0.537316 0.953989
vt 0.535964 0.953989
vt 0.535964 0.951449
vt 0.537316 0.951449
vt 0.537980 0.951410
vt 0.538313 0.951403
vt 0.538313 0.953943
vt 0.537980 0.953949
vt 0.537648 0.953968
vt 0.537648 0.951428
vt 0.535632 0.954011
vt 0.535632 0.951471
vt 0.535300 0.954030
vt 0.535300 0.951490
vt 0.534881 0.954030
vt 0.534881 0.951490
vt 0.534549 0.954046
vt 0.534549 0.951506
vt 0.544417 0.951403
vt 0.546260 0.952063
vt 0.546260 0.953282
vt 0.544417 0.953943
vt 0.527796 0.954046
vt 0.527136 0.953386
vt 0.527136 0.952167
vt 0.527796 0.951506
vt 0.190902 0.193261
vt 0.188742 0.703990
vt 0.362541 0.704725
vt 0.364702 0.193997
vt 0.650324 0.201166
vt 0.648183 0.707261
vt 0.475961 0.706532
vt 0.478102 0.200438
vt 0.071858 0.779999
vt 0.071858 0.322406
vt 0.115199 0.322406
vt 0.115199 0.779999
vt 0.191623 0.023018
vt 0.191180 0.127718
vt 0.374373 0.128493
vt 0.433787 0.024043
vt 0.718783 0.032755
vt 0.659908 0.136257
vt 0.478377 0.135489
vt 0.478816 0.031740
vt 0.071858 0.990801
vt 0.071858 0.872158
vt 0.115199 0.872158
vt 0.115199 0.990802
vt 0.190977 0.175564
vt 0.374171 0.176340
vt 0.659707 0.183669
vt 0.478176 0.182902
vt 0.071858 0.829289
vt 0.115199 0.829289
vt 0.188692 0.715672
vt 0.408497 0.716602
vt 0.188495 0.762400
vt 0.387027 0.763240
vt 0.693722 0.719030
vt 0.475912 0.718108
vt 0.672447 0.765245
vt 0.475716 0.764412
vt 0.071858 0.287103
vt 0.115199 0.287103
vt 0.071858 0.241415
vt 0.115199 0.241415
vt 0.187825 0.920663
vt 0.455741 0.921796
vt 0.187565 0.982133
vt 0.455481 0.983267
vt 0.740537 0.922362
vt 0.475052 0.921239
vt 0.740279 0.983275
vt 0.474794 0.982152
vt 0.071858 0.070960
vt 0.115199 0.070960
vt 0.071858 0.015885
vt 0.115199 0.015885
vt 0.169652 0.990802
vt 0.170090 0.872158
vt 0.016967 0.872158
vt 0.022789 0.829289
vt 0.032585 0.241415
vt 0.032585 0.287103
vt 0.032585 0.779999
vt 0.032585 0.015885
vt 0.032585 0.070960
vt 0.154472 0.015884
vt 0.154472 0.070959
vt 0.032585 0.322406
vt 0.017405 0.990801
vt 0.154472 0.322406
vt 0.154472 0.779999
vt 0.164077 0.829289
vt 0.154472 0.287103
vt 0.154472 0.241415
vn 0.000000 -1.000000 0.000000
vn 0.000000 -1.000000 0.000000
vn 0.000000 -1.000000 0.000000
vn 0.000000 -1.000000 0.000000
vn -0.000000 -1.000000 0.000000
vn -0.000000 -1.000000 0.000000
vn -0.000000 -1.000000 0.000000
vn -0.000000 -1.000000 0.000000
vn 0.000000 -1.000000 0.000000
vn 0.000000 -1.000000 0.000000
vn 0.000000 -1.000000 0.000000
vn 0.000000 -1.000000 0.000000
vn 0.000000 -1.000000 0.000000
vn 0.000000 -1.000000 0.000000
vn 0.000000 -1.000000 0.000000
vn 0.000000 -1.000000 0.000000
vn 0.000000 -1.000000 0.000000
vn 0.000000 -1.000000 0.000000
vn 0.000000 -1.000000 0.000000
vn 0.000000 -1.000000 0.000000
vn 0.000000 -1.000000 0.000000
vn 0.000000 -1.000000 0.000000
vn 0.000000 -1.000000 0.000000
vn 0.000000 -1.000000 0.000000
vn -0.000000 -1.000000 0.000000
vn -0.000000 -1.000000 0.000000
vn -0.000000 -1.000000 0.000000
vn -0.000000 -1.000000 0.000000
vn 0.000000 -1.000000 0.000000
vn 0.000000 -1.000000 0.000000
vn 0.000000 -1.000000 0.000000
vn 0.000000 -1.000000 0.000000
vn -0.000002 -0.000000 -1.000000
vn -0.000002 -0.000000 -1.000000
vn -0.000002 -0.000000 -1.000000
vn -0.000002 -0.000000 -1.000000
vn 0.000001 -0.000001 -1.000000
vn 0.000001 -0.000001 -1.000000
vn 0.000001 -0.000001 -1.000000
vn 0.000001 -0.000001 -1.000000
vn -0.000002 0.000001 1.000000
vn -0.000002 0.000001 1.000000
vn -0.000002 0.000001 1.000000
vn -0.000002 0.000001 1.000000
vn -0.000001 0.000001 1.000000
vn -0.000001 0.000001 1.000000
vn -0.000001 0.000001 1.000000
vn -0.000001 0.000001 1.000000
vn -1.000000 0.000000 0.000000
vn -1.000000 0.000000 0.000000
vn -1.000000 0.000000 0.000000
vn -1.000000 0.000000 0.000000
vn 1.000000 -0.000000 0.000000
vn 1.000000 -0.000000 0.000000
vn 1.000000 -0.000000 0.000000
vn 1.000000 -0.000000 0.000000
vn -0.000000 1.000000 -0.000000
vn -0.000000 1.000000 -0.000000
vn -0.000000 1.000000 -0.000000
vn -0.000000 1.000000 -0.000000
vn -1.000000 0.000000 0.000000
vn -1.000000 0.000000 0.000000
vn -1.000000 0.000000 0.000000
vn -1.000000 0.000000 0.000000
vn 1.000000 0.000000 0.000000
vn 1.000000 0.000000 0.000000
vn 1.000000 0.000000 0.000000
vn 1.000000 0.000000 0.000000
vn 0.000001 0.871299 0.490752
vn 0.000001 0.871299 0.490752
vn 0.000001 0.871299 0.490752
vn 0.000001 0.871299 0.490752
vn -1.000000 0.000000 0.000000
vn -1.000000 0.000000 0.000000
vn -1.000000 0.000000 0.000000
vn -1.000000 0.000000 0.000000
vn -1.000000 0.000000 0.000000
vn -1.000000 0.000000 0.000000
vn -1.000000 0.000000 0.000000
vn -1.000000 0.000000 0.000000
vn 1.000000 0.000000 0.000000
vn 1.000000 0.000000 0.000000
vn 1.000000 0.000000 0.000000
vn 1.000000 0.000000 0.000000
vn 1.000000 0.000000 0.000000
vn 1.000000 0.000000 0.000000
vn 1.000000 0.000000 0.000000
vn 1.000000 0.000000 0.000000
vn 0.000000 1.000000 0.000000
vn 0.000000 1.000000 0.000000
vn 0.000000 1.000000 0.000000
vn 0.000000 1.000000 0.000000
vn 0.000001 0.329926 0.944007
vn 0.000001 0.329926 0.944007
vn 0.000001 0.329926 0.944007
vn 0.000001 0.329926 0.944007
vn -1.000000 0.000000 0.000000
vn -1.000000 0.000000 0.000000
vn -1.000000 0.000000 0.000000
vn -1.000000 0.000000 0.000000
vn -1.000000 0.000000 0.000000
vn -1.000000 0.000000 0.000000
vn -1.000000 0.000000 0.000000
vn -1.000000 0.000000 0.000000
vn 1.000000 0.000000 0.000000
vn 1.000000 0.000000 0.000000
vn 1.000000 0.000000 0.000000
vn 1.000000 0.000000 0.000000
vn 1.000000 0.000000 0.000000
vn 1.000000 0.000000 0.000000
vn 1.000000 0.000000 0.000000
vn 1.000000 0.000000 0.000000
vn 0.000000 0.278172 -0.960531
vn 0.000000 0.278172 -0.960531
vn 0.000000 0.278172 -0.960531
vn 0.000000 0.278172 -0.960531
vn 0.000000 0.910133 0.414316
vn 0.000000 0.910133 0.414316
vn 0.000000 0.910133 0.414316
vn 0.000000 0.910133 0.414316
vn -1.000000 0.000000 0.000000
vn -1.000000 0.000000 0.000000
vn -1.000000 0.000000 0.000000
vn -1.000000 0.000000 0.000000
vn -1.000000 0.000000 0.000000
vn -1.000000 0.000000 0.000000
vn -1.000000 0.000000 0.000000
vn -1.000000 0.000000 0.000000
vn 1.000000 0.000000 0.000000
vn 1.000000 0.000000 0.000000
vn 1.000000 0.000000 0.000000
vn 1.000000 0.000000 0.000000
vn 1.000000 0.000000 0.000000
vn 1.000000 0.000000 0.000000
vn 1.000000 0.000000 0.000000
vn 1.000000 0.000000 0.000000
vn 0.000001 0.915853 -0.401514
vn 0.000001 0.915853 -0.401514
vn 0.000001 0.915853 -0.401514
vn 0.000001 0.915853 -0.401514
vn 0.000001 1.000000 0.000000
vn 0.000001 1.000000 0.000000
vn 0.000001 1.000000 0.000000
vn 0.000001 1.000000 0.000000
vn 0.924835 0.331414 0.186666
vn 0.924835 0.331414 0.186666
vn 0.924835 0.331414 0.186666
vn 0.924835 0.331414 0.186666
vn -0.941382 0.337343 0.000000
vn -0.941382 0.337343 0.000000
vn -0.941382 0.337343 0.000000
vn -0.941382 0.337343 0.000000
vn -0.673095 0.673095 0.306410
vn -0.673095 0.673095 0.306410
vn -0.673095 0.673095 0.306410
vn -0.673095 0.673095 0.306410
vn -0.713229 0.356002 0.603793
vn -0.713229 0.356002 0.603793
vn -0.713229 0.356002 0.603793
vn -0.713229 0.356002 0.603793
vn -0.707108 0.707106 0.000000
vn -0.707108 0.707106 0.000000
vn -0.707108 0.707106 0.000000
vn -0.707108 0.707106 0.000000
vn 0.707108 0.707106 0.000000
vn 0.707108 0.707106 0.000000
vn 0.707108 0.707106 0.000000
vn 0.707108 0.707106 0.000000
vn -0.278038 0.250902 -0.927223
vn -0.278038 0.250902 -0.927223
vn -0.278038 0.250902 -0.927223
vn -0.278038 0.250902 -0.927223
vn -0.924835 0.331414 0.186666
vn -0.924835 0.331414 0.186666
vn -0.924835 0.331414 0.186666
vn -0.924835 0.331414 0.186666
vn 0.772451 0.635074 -0.000000
vn 0.772451 0.635074 -0.000000
vn 0.772451 0.635074 -0.000000
vn 0.772451 0.635074 -0.000000
vn 0.941382 0.337344 0.000000
vn 0.941382 0.337344 0.000000
vn 0.941382 0.337344 0.000000
vn 0.941382 0.337344 0.000000
vn 0.713229 0.356002 0.603795
vn 0.713229 0.356002 0.603795
vn 0.713229 0.356002 0.603795
vn 0.713229 0.356002 0.603795
vn -0.772452 0.635074 -0.000000
vn -0.772452 0.635074 -0.000000
vn -0.772452 0.635074 -0.000000
vn -0.772452 0.635074 -0.000000
vn -0.675398 0.675399 -0.296098
vn -0.675398 0.675399 -0.296098
vn -0.675398 0.675399 -0.296098
vn -0.675398 0.675399 -0.296098
vn 0.278040 0.250901 -0.927223
vn 0.278040 0.250901 -0.927223
vn 0.278040 0.250901 -0.927223
vn 0.278040 0.250901 -0.927223
vn 0.673094 0.673095 0.306410
vn 0.673094 0.673095 0.306410
vn 0.673094 0.673095 0.306410
vn 0.673094 0.673095 0.306410
vn 0.675399 0.675398 -0.296097
vn 0.675399 0.675398 -0.296097
vn 0.675399 0.675398 -0.296097
vn 0.675399 0.675398 -0.296097
s off
g pillar_low:Mesh
usemtl pillar_low:None_Untitled
f 8/1/1 6/2/2 5/3/3 7/4/4
f 9/5/5 1/6/6 3/7/7 10/8/8
f 10/8/9 12/9/10 11/10/11 9/5/12
f 12/9/13 8/1/14 7/4/15 11/10/16
f 6/2/17 16/11/18 15/12/19 5/3/20
f 16/11/21 14/13/22 13/14/23 15/12/24
f 14/13/25 18/15/26 17/16/27 13/14/28
f 18/15/29 4/17/30 2/18/31 17/16/32
f 19/19/33 20/20/34 21/21/35 22/22/36
f 3/7/37 1/6/38 19/19/39 22/22/40
f 23/23/41 24/24/42 25/25/43 26/26/44
f 23/23/45 26/26/46 2/18/47 4/17/48
f 7/27/49 5/28/50 27/29/51 28/30/52
f 29/31/53 30/32/54 6/33/55 8/34/56
f 31/35/57 32/36/58 33/37/59 34/38/60
f 1/39/61 9/40/62 35/41/63 19/42/64
f 22/43/65 36/44/66 10/45/67 3/46/68
f 20/47/69 37/48/70 38/49/71 21/50/72
f 9/40/73 11/51/74 39/52/75 35/41/76
f 11/51/77 7/27/78 28/30/79 39/52/80
f 36/44/81 40/53/82 12/54/83 10/45/84
f 40/53/85 29/31/86 8/34/87 12/54/88
f 37/48/89 41/55/90 42/56/91 38/49/92
f 41/55/93 31/35/94 34/38/95 42/56/96
f 5/28/97 15/57/98 43/58/99 27/29/100
f 15/57/101 13/59/102 44/60/103 43/58/104
f 30/32/105 45/61/106 16/62/107 6/33/108
f 45/61/109 46/63/110 14/64/111 16/62/112
f 32/36/113 47/65/114 48/66/115 33/37/116
f 47/65/117 49/67/118 50/68/119 48/66/120
f 13/59/121 17/69/122 51/70/123 44/60/124
f 17/69/125 2/71/126 26/72/127 51/70/128
f 46/63/129 52/73/130 18/74/131 14/64/132
f 52/73/133 23/75/134 4/76/135 18/74/136
f 49/67/137 53/77/138 54/78/139 50/68/140
f 53/77/141 25/79/142 24/80/143 54/78/144
f 22/81/145 21/50/146 38/49/147 36/82/148
f 35/83/149 39/84/150 41/55/151 37/48/152
f 44/85/153 49/67/154 47/65/155 43/86/156
f 28/87/157 31/35/158 41/55/159 39/84/160
f 26/88/161 25/79/162 53/77/163 51/89/164
f 23/90/165 52/91/166 54/78/167 24/80/168
f 27/92/169 43/86/170 47/65/171 32/36/172
f 19/93/173 35/83/174 37/48/175 20/47/176
f 30/94/177 29/95/178 34/38/179 33/37/180
f 36/82/181 38/49/182 42/56/183 40/96/184
f 29/95/185 40/96/186 42/56/187 34/38/188
f 27/92/189 32/36/190 31/35/191 28/87/192
f 44/85/193 51/89/194 53/77/195 49/67/196
f 30/94/197 33/37/198 48/66/199 45/97/200
f 46/98/201 45/97/202 48/66/203 50/68/204
f 46/98/205 50/68/206 54/78/207 52/91/208
